<svg xmlns="http://www.w3.org/2000/svg" width="1200" height="320" viewBox="0 0 1200 320" role="img" aria-label="Revix text logo dark mode">
  <defs>
    <linearGradient id="revixG2Dark" x1="30" y1="30" x2="250" y2="270" gradientUnits="userSpaceOnUse">
      <stop offset="0" stop-color="#8B8DFF"/>
      <stop offset="0.55" stop-color="#6366F1"/>
      <stop offset="1" stop-color="#34D399"/>
    </linearGradient>

    <filter id="softShadow2Dark" x="-20%" y="-20%" width="140%" height="140%">
      <feGaussianBlur in="SourceAlpha" stdDeviation="8" result="blur"/>
      <feOffset dx="0" dy="10" result="offsetBlur"/>
      <feColorMatrix in="offsetBlur" type="matrix"
        values="0 0 0 0 0
                0 0 0 0 0
                0 0 0 0 0
                0 0 0 0.55 0" result="shadow"/>
      <feMerge>
        <feMergeNode in="shadow"/>
        <feMergeNode in="SourceGraphic"/>
      </feMerge>
    </filter>

    <filter id="softGlow2" x="-25%" y="-25%" width="150%" height="150%">
      <feGaussianBlur in="SourceGraphic" stdDeviation="6" result="blur"/>
      <feColorMatrix in="blur" type="matrix"
        values="1 0 0 0 0
                0 1 0 0 0
                0 0 1 0 0
                0 0 0 0.22 0" result="glow"/>
      <feMerge>
        <feMergeNode in="glow"/>
        <feMergeNode in="SourceGraphic"/>
      </feMerge>
    </filter>
  </defs>


  <!-- Icon -->
  <g transform="translate(60,40)" filter="url(#softShadow2Dark)">
    <rect x="0" y="0" width="240" height="240" rx="60" fill="url(#revixG2Dark)"/>

    <path d="M64 68c0-14.4 11.6-26 26-26h78c14.4 0 26 11.6 26 26v76c0 14.4-11.6 26-26 26h-42l-42 30c-5.2 3.7-12.2 0.1-12.2-6.3V170H64c-14.4 0-26-11.6-26-26V68z"
          fill="#070B14" opacity="0.92"/>

    <g filter="url(#softGlow2)">
      <path d="M94 86h52c17 0 30 13 30 30s-13 30-30 30h-16l38 42"
            fill="none" stroke="#F8FAFC" stroke-width="16" stroke-linecap="round" stroke-linejoin="round" opacity="0.98"/>
      <path d="M94 86v102"
            fill="none" stroke="#F8FAFC" stroke-width="16" stroke-linecap="round" opacity="0.98"/>
    </g>

    <g opacity="0.98">
      <rect x="92" y="196" width="12" height="24" rx="6" fill="#34D399"/>
      <rect x="110" y="186" width="12" height="34" rx="6" fill="#F8FAFC" opacity="0.9"/>
      <rect x="128" y="176" width="12" height="44" rx="6" fill="#F8FAFC" opacity="0.78"/>
      <rect x="146" y="166" width="12" height="54" rx="6" fill="#8B8DFF"/>
    </g>
  </g>

  <!-- Wordmark -->
  <g transform="translate(350,70)">
    <text x="0" y="120"
          font-family="ui-sans-serif, system-ui, -apple-system, Segoe UI, Roboto, Helvetica, Arial"
          font-size="120"
          font-weight="800"
          letter-spacing="-2"
          fill="#F8FAFC"
          filter="url(#softGlow2)">Revix</text>

    <path d="M10 148h330" stroke="#6366F1" stroke-width="12" stroke-linecap="round" opacity="0.35"/>
    <path d="M10 148h180" stroke="#34D399" stroke-width="12" stroke-linecap="round" opacity="0.55"/>

    <text x="6" y="200"
          font-family="ui-sans-serif, system-ui, -apple-system, Segoe UI, Roboto, Helvetica, Arial"
          font-size="30"
          font-weight="600"
          letter-spacing="0.2"
          fill="#CBD5E1">AI Review Analyzer</text>
  </g>
</svg>
